HIERARCHY
ROOT Hips
{
	OFFSET 0.00000 0.00000 0.00000
	CHANNELS 6 Xposition Yposition Zposition Zrotation Yrotation Xrotation 
	JOINT LHipJoint
	{
		OFFSET 0 0 0
		CHANNELS 3 Zrotation Yrotation Xrotation
		JOINT LeftHip
		{
			OFFSET 1.46561 -1.72757 0.83774
			CHANNELS 3 Zrotation Yrotation Xrotation
			JOINT LeftKnee
			{
				OFFSET 2.48915 -6.83890 0.00000
				CHANNELS 3 Zrotation Yrotation Xrotation
				JOINT LeftAnkle
				{
					OFFSET 2.60555 -7.15868 0.00000
					CHANNELS 3 Zrotation Yrotation Xrotation
					JOINT LeftToe
					{
						OFFSET 0.19248 -0.52884 2.26738
						CHANNELS 3 Zrotation Yrotation Xrotation
						End Site
						{
							OFFSET 0.00000 -0.00000 1.17015
						}
					}
				}
			}
		}
	}
	JOINT RHipJoint
	{
		OFFSET 0 0 0
		CHANNELS 3 Zrotation Yrotation Xrotation
		JOINT RightHip
		{
			OFFSET -1.46918 -1.72757 0.83774
			CHANNELS 3 Zrotation Yrotation Xrotation
			JOINT RightKnee
			{
				OFFSET -2.49034 -6.84216 0.00000
				CHANNELS 3 Zrotation Yrotation Xrotation
				JOINT RightAnkle
				{
					OFFSET -2.65971 -7.30750 0.00000
					CHANNELS 3 Zrotation Yrotation Xrotation
					JOINT RightToe
					{
						OFFSET -0.19227 -0.52827 2.30785
						CHANNELS 3 Zrotation Yrotation Xrotation
						End Site
						{
							OFFSET -0.00000 -0.00000 1.18972
						}
					}
				}
			}
		}
	}
	JOINT lowerback
	{
		OFFSET 0 0 0
		CHANNELS 3 Zrotation Yrotation Xrotation
		JOINT Chest
		{
			OFFSET 0.02432 2.19909 -0.28000
			CHANNELS 3 Zrotation Yrotation Xrotation
			JOINT Chest2
			{
				OFFSET 0.03714 2.21816 -0.15261
				CHANNELS 3 Zrotation Yrotation Xrotation
				JOINT lowerneck
				{
					OFFSET 0 0 0
					CHANNELS 3 Zrotation Yrotation Xrotation
					JOINT Neck
					{
						OFFSET -0.01896 1.56165 0.21681
						CHANNELS 3 Zrotation Yrotation Xrotation
						JOINT Head
						{
							OFFSET 0.02744 1.56009 0.06764
							CHANNELS 3 Zrotation Yrotation Xrotation
							End Site
							{
								OFFSET 0.01212 1.60574 0.00298
							}
						}
					}
				}
				JOINT LeftCollar
				{
					OFFSET 0 0 0
					CHANNELS 3 Zrotation Yrotation Xrotation
					JOINT LeftShoulder
					{
						OFFSET 3.05595 1.48048 -0.60794
CHANNELS 3 Zrotation Xrotation Yrotation
						JOINT LeftElbow
						{
OFFSET 0 -5.206070 -0.000000
CHANNELS 3 Zrotation Xrotation Yrotation
							JOINT LeftWrist
							{
OFFSET 0 -3.399610 0.000000
CHANNELS 3 Zrotation Xrotation Yrotation
								JOINT lhand
								{
									OFFSET 0 0 0
CHANNELS 3 Zrotation Xrotation Yrotation
									JOINT LFingers
									{
OFFSET 0 -0.519690 0.000000
CHANNELS 3 Zrotation Xrotation Yrotation
										End Site
										{
OFFSET 0 -0.418990 0.000000
										}
									}
								}
								JOINT LThumb
								{
OFFSET 0 0.000000 0.000000
CHANNELS 3 Zrotation Xrotation Yrotation
									End Site
									{
OFFSET 0 -0.425390 0.425390
									}
								}
							}
						}
					}
				}
				JOINT RightCollar
				{
					OFFSET 0 0 0
					CHANNELS 3 Zrotation Yrotation Xrotation
					JOINT RightShoulder
					{
						OFFSET -2.99052 1.57608 -0.69102
CHANNELS 3 Zrotation Xrotation Yrotation
						JOINT RightElbow
						{
OFFSET 0 -5.322140 0.000000
CHANNELS 3 Zrotation Xrotation Yrotation
							JOINT RightWrist
							{
OFFSET 0 -3.512080 0.000000
CHANNELS 3 Zrotation Xrotation Yrotation
								JOINT rhand
								{
									OFFSET 0 0 0
CHANNELS 3 Zrotation Xrotation Yrotation
									JOINT RFingers
									{
OFFSET 0 -0.586680 0.000000
CHANNELS 3 Zrotation Xrotation Yrotation
										End Site
										{
OFFSET 0 -0.473000 0.000000
										}
									}
								}
								JOINT RThumb
								{
OFFSET 0 0.000000 0.000000
CHANNELS 3 Zrotation Xrotation Yrotation
									End Site
									{
OFFSET 0 -0.480220 0.480220
									}
								}
							}
						}
					}
				}
			}
		}
	}
}
MOTION
Frames: 9
Frame Time: 0.008333333333333333
0.071900 17.548200 -13.302600 -1.344300 -0.669800 6.781700 0.000000 0.000000 0.000000 -18.567500 3.714600 -12.946200 1.034600 6.469500 18.152900 0.394700 3.692300 -13.805000 0.068600 -1.689700 -4.648900 0.000000 0.000000 0.000000 20.530700 0.446300 -11.820600 -1.218800 -7.002700 19.723500 -0.700700 3.007200 -15.078800 -0.351000 -3.806700 10.533600 0.251400 -0.746000 -3.988300 1.622300 -1.081600 2.292000 1.450200 -0.556400 4.632200 -1.768700 0.779900 -11.989600 0.499200 1.398900 30.458100 0.683000 0.480600 11.946000 0.000000 -0.000000 0.000000 1.976300 -8.734400 -24.110400 10.904900 -18.142300 1.746200 24.582200 -2.335100 2.932300 0.000000 0.000000 0.000000 -7.125000 0.000000 0.000000 -1.542700 26.755100 -0.683300 0.000000 -0.000000 0.000000 -2.600000 -6.427800 -1.402600 -14.960000 -24.090400 -3.209600 -20.705100 39.045100 24.451600 0.000000 0.000000 0.000000 7.125000 0.000000 -0.000000 9.444200 55.655000 -2.485500
0.071505 17.548397 -13.300528 -1.339959 -0.638622 6.771143 0.000000 0.000000 0.000000 -18.577366 3.740450 -13.031249 1.048709 6.512222 18.278105 0.395391 3.638133 -13.777078 0.062581 -1.614222 -4.440619 0.000000 0.000000 0.000000 20.531095 0.435842 -11.769492 -1.212979 -6.986519 19.675253 -0.706127 2.987171 -15.142241 -0.352184 -3.812719 10.550472 0.245973 -0.753992 -3.965015 1.622399 -1.091565 2.284502 1.452963 -0.561432 4.611480 -1.762188 0.780788 -12.010320 0.516170 1.394164 30.515128 0.688229 0.480699 11.972935 0.000000 0.000000 0.000000 2.044674 -8.739728 -23.941881 10.835736 -18.036137 1.724691 24.627783 -2.209895 2.866392 0.000000 0.000000 0.000000 -7.125000 0.000000 0.000000 -1.507575 26.826336 -0.665244 0.000000 0.000000 0.000000 -2.582043 -6.454341 -1.643440 -14.883634 -23.983744 -3.178521 -20.726609 39.291366 24.601866 0.000000 0.000000 0.000000 7.125000 0.000000 0.000000 9.487514 55.812666 -2.533451
0.071792 17.548303 -13.299235 -1.355181 -0.627786 6.763895 0.000000 0.000000 0.000000 -18.568740 3.735642 -13.094788 1.062137 6.552510 18.396108 0.394816 3.614041 -13.753341 0.057634 -1.549255 -4.261635 0.000000 0.000000 0.000000 20.546965 0.441150 -11.742132 -1.210564 -6.979779 19.655426 -0.706200 2.961789 -15.146896 -0.352589 -3.815136 10.557026 0.254270 -0.761205 -3.973654 1.638946 -1.102893 2.305131 1.464193 -0.567145 4.638452 -1.759277 0.785180 -12.048558 0.497518 1.406753 30.547921 0.683044 0.483912 11.994128 0.000000 0.000000 0.000000 2.073923 -8.832554 -23.675936 10.748372 -17.901554 1.697732 24.653316 -2.062304 2.949106 0.000000 0.000000 0.000000 -7.125000 0.000000 0.000000 -1.488413 26.734838 -0.659939 0.000000 0.000000 0.000000 -2.603407 -6.490614 -1.748506 -14.840359 -23.923319 -3.160970 -20.708310 39.341515 24.551732 0.000000 0.000000 0.000000 7.125000 0.000000 0.000000 9.484499 55.757765 -2.519987
0.072184 17.548396 -13.298624 -1.344273 -0.587375 6.767156 0.000000 0.000000 0.000000 -18.586547 3.708046 -13.167919 1.075363 6.591805 18.511612 0.394608 3.553404 -13.708927 0.054332 -1.504111 -4.137096 0.000000 0.000000 0.000000 20.538185 0.426517 -11.733145 -1.208676 -6.974608 19.640117 -0.705912 2.920495 -15.149784 -0.348664 -3.793697 10.497108 0.244325 -0.769367 -3.951342 1.641800 -1.112703 2.293317 1.472275 -0.572388 4.613858 -1.758816 0.780500 -12.010627 0.496040 1.399517 30.560031 0.681172 0.480544 11.991148 0.000000 0.000000 0.000000 2.116169 -8.818781 -23.478921 10.699443 -17.826193 1.682793 24.659376 -1.904711 2.970599 0.000000 0.000000 0.000000 -7.125000 0.000000 0.000000 -1.483868 26.711085 -0.658744 0.000000 0.000000 0.000000 -2.607360 -6.470193 -1.890106 -14.796387 -23.861608 -3.143125 -20.761652 39.430346 24.485696 0.000000 0.000000 0.000000 7.125000 0.000000 0.000000 9.399926 55.701388 -2.484274
0.072579 17.547737 -13.297843 -1.345031 -0.555315 6.763798 0.000000 0.000000 0.000000 -18.592412 3.683520 -13.229115 1.088584 6.630790 18.626103 0.393843 3.522219 -13.676904 0.051455 -1.463301 -4.024569 0.000000 0.000000 0.000000 20.540450 0.415961 -11.722766 -1.208316 -6.973453 19.636850 -0.707698 2.893621 -15.173091 -0.345944 -3.779453 10.457021 0.243995 -0.777746 -3.937432 1.649378 -1.124080 2.294504 1.479605 -0.578185 4.607688 -1.755108 0.779259 -12.013544 0.490605 1.398727 30.585868 0.678639 0.479737 12.002264 0.000000 0.000000 0.000000 2.155668 -8.840155 -23.265498 10.642504 -17.738197 1.665351 24.654110 -1.754799 2.972347 0.000000 0.000000 0.000000 -7.125000 0.000000 0.000000 -1.487865 26.709348 -0.660593 0.000000 0.000000 0.000000 -2.613274 -6.477251 -2.039212 -14.746230 -23.791325 -3.122806 -20.796273 39.540963 24.445799 0.000000 0.000000 0.000000 7.125000 0.000000 0.000000 9.346421 55.667674 -2.462259
0.073160 17.546767 -13.297427 -1.349206 -0.522150 6.760707 0.000000 0.000000 0.000000 -18.594566 3.648977 -13.280928 1.101059 6.667429 18.733648 0.392587 3.505668 -13.647950 0.049434 -1.434596 -3.945429 0.000000 0.000000 0.000000 20.545826 0.404575 -11.720614 -1.209327 -6.976293 19.645192 -0.709760 2.869523 -15.199784 -0.343000 -3.763395 10.411878 0.246893 -0.785946 -3.924661 1.658666 -1.135619 2.298613 1.486813 -0.583913 4.605160 -1.750327 0.777054 -12.022012 0.481901 1.397580 30.610911 0.674674 0.478393 12.014192 0.000000 0.000000 0.000000 2.191396 -8.864917 -23.057643 10.594605 -17.664248 1.650775 24.602939 -1.609703 2.913047 0.000000 0.000000 0.000000 -7.125000 0.000000 0.000000 -1.526735 26.775745 -0.675445 0.000000 0.000000 0.000000 -2.620879 -6.485446 -2.184764 -14.697772 -23.723388 -3.103316 -20.824604 39.648068 24.408797 0.000000 0.000000 0.000000 7.125000 0.000000 0.000000 9.300765 55.635757 -2.442902
0.073660 17.545596 -13.297216 -1.357227 -0.487521 6.756913 0.000000 0.000000 0.000000 -18.591480 3.606954 -13.329841 1.113674 6.704395 18.842361 0.391396 3.500001 -13.627327 0.048012 -1.414579 -3.890251 0.000000 0.000000 0.000000 20.555583 0.390922 -11.719764 -1.210320 -6.979076 19.653343 -0.711372 2.845731 -15.221837 -0.340224 -3.748226 10.369430 0.253355 -0.793951 -3.909174 1.669511 -1.147070 2.302763 1.493647 -0.589635 4.601137 -1.748436 0.773772 -12.032167 0.476333 1.394556 30.637804 0.672100 0.476276 12.027234 0.000000 0.000000 0.000000 2.225351 -8.885917 -22.866158 10.556445 -17.605212 1.639222 24.521571 -1.475626 2.793541 0.000000 0.000000 0.000000 -7.125000 0.000000 0.000000 -1.588647 26.909005 -0.697933 0.000000 0.000000 0.000000 -2.629127 -6.490323 -2.328533 -14.650438 -23.656893 -3.084339 -20.843885 39.756209 24.392410 0.000000 0.000000 0.000000 7.125000 0.000000 0.000000 9.273508 55.623022 -2.432769
0.074335 17.544503 -13.297109 -1.370682 -0.452881 6.751433 0.000000 0.000000 0.000000 -18.580866 3.561347 -13.375771 1.126394 6.741122 18.950644 0.390484 3.501141 -13.614822 0.047084 -1.400762 -3.852268 0.000000 0.000000 0.000000 20.571357 0.375749 -11.715893 -1.210763 -6.980297 19.656991 -0.712225 2.820684 -15.235566 -0.337824 -3.735306 10.333275 0.265050 -0.801218 -3.892580 1.681641 -1.157790 2.308811 1.499005 -0.594814 4.598352 -1.747847 0.769149 -12.047867 0.473090 1.389314 30.669824 0.670450 0.473290 12.043439 0.000000 0.000000 0.000000 2.257924 -8.906909 -22.694871 10.523394 -17.554087 1.629235 24.435208 -1.345594 2.636736 0.000000 0.000000 0.000000 -7.125000 0.000000 0.000000 -1.654718 27.083100 -0.720196 0.000000 0.000000 0.000000 -2.637324 -6.493782 -2.469106 -14.605263 -23.593302 -3.066211 -20.846397 39.863447 24.407789 0.000000 0.000000 0.000000 7.125000 0.000000 0.000000 9.277474 55.639142 -2.437439
0.074936 17.543596 -13.297279 -1.389238 -0.419233 6.746256 0.000000 0.000000 0.000000 -18.563187 3.517255 -13.421542 1.138854 6.777200 19.056914 0.390043 3.502908 -13.610127 0.046643 -1.393962 -3.833438 0.000000 0.000000 0.000000 20.592996 0.360099 -11.709873 -1.210264 -6.978971 19.653102 -0.712300 2.794095 -15.240194 -0.335903 -3.724633 10.303284 0.281830 -0.807080 -3.875727 1.694232 -1.166928 2.314491 1.502090 -0.599051 4.594885 -1.749140 0.762984 -12.064494 0.474050 1.381208 30.709698 0.670389 0.469249 12.063042 0.000000 0.000000 0.000000 2.290474 -8.924262 -22.543844 10.493059 -17.507143 1.620083 24.368945 -1.228979 2.490931 0.000000 0.000000 0.000000 -7.125000 0.000000 0.000000 -1.705658 27.244502 -0.735876 0.000000 0.000000 0.000000 -2.644263 -6.495886 -2.612622 -14.559290 -23.528620 -3.047798 -20.841766 39.973365 24.436563 0.000000 0.000000 0.000000 7.125000 0.000000 0.000000 9.294891 55.667605 -2.448539
